<svg width="23" height="24" viewBox="0 0 23 24" fill="none" xmlns="http://www.w3.org/2000/svg">
<g id="24-sms-payment">
<g id="icon">
<path fill-rule="evenodd" clip-rule="evenodd" d="M6.15166 4.42502C7.94876 3.11559 10.1545 2.49107 12.3713 2.66402C14.5881 2.83696 16.6703 3.79598 18.2426 5.36828C19.8148 6.94057 20.7739 9.02273 20.9468 11.2396C21.1198 13.4564 20.4952 15.6621 19.1858 17.4592C17.8764 19.2563 15.9681 20.5266 13.805 21.0412C11.7729 21.5247 9.64132 21.3114 7.75032 20.4424L2.60845 22.1854C2.27217 22.2994 1.90033 22.2127 1.64925 21.9616C1.39818 21.7105 1.31139 21.3387 1.42539 21.0024L3.16839 15.8605C2.29942 13.9695 2.08613 11.838 2.56958 9.80588C3.08422 7.6427 4.35455 5.73446 6.15166 4.42502ZM12.2262 4.52425C10.4527 4.38589 8.68814 4.88551 7.25046 5.93305C5.81278 6.9806 4.79651 8.50719 4.3848 10.2377C3.97309 11.9683 4.193 13.789 5.00492 15.3717C5.12013 15.5963 5.13942 15.858 5.05838 16.0971L3.7992 19.8116L7.51378 18.5525C7.75284 18.4714 8.01452 18.4907 8.23911 18.6059C9.82186 19.4178 11.6426 19.6377 13.3731 19.226C15.1036 18.8143 16.6302 17.7981 17.6778 16.3604C18.7253 14.9227 19.2249 13.1581 19.0866 11.3847C18.9482 9.61122 18.181 7.94549 16.9232 6.68765C15.6653 5.42982 13.9996 4.6626 12.2262 4.52425Z" fill="#21A90A"/>
<path fill-rule="evenodd" clip-rule="evenodd" d="M12.5713 6.37484C13.0865 6.37484 13.5042 6.79253 13.5042 7.30778V8.70719H14.4372C14.9524 8.70719 15.3701 9.12488 15.3701 9.64013C15.3701 10.1554 14.9524 10.5731 14.4372 10.5731H13.5042L13.5042 11.506H14.4372C14.9524 11.506 15.3701 11.9237 15.3701 12.439C15.3701 12.9542 14.9524 13.3719 14.4372 13.3719H13.5042V14.3048C13.5042 16.1082 12.0423 17.5701 10.2389 17.5701C8.43557 17.5701 6.97365 16.1082 6.97365 14.3048V13.333C6.97365 12.8178 7.39134 12.4001 7.90659 12.4001C8.42184 12.4001 8.83953 12.8178 8.83953 13.333V14.3048C8.83953 15.0777 9.46607 15.7042 10.2389 15.7042C11.0118 15.7042 11.6384 15.0777 11.6384 14.3048V13.3719H10.7054C10.1902 13.3719 9.77247 12.9542 9.77247 12.439C9.77247 11.9237 10.1902 11.506 10.7054 11.506H11.6384L11.6384 10.5731H10.7054C10.1902 10.5731 9.77247 10.1554 9.77247 9.64013C9.77247 9.12488 10.1902 8.70719 10.7054 8.70719H11.6384V7.30778C11.6384 6.79253 12.056 6.37484 12.5713 6.37484Z" fill="#21A90A"/>
</g>
</g>
</svg>
