<svg width="97" height="32" viewBox="0 0 97 32" fill="none" xmlns="http://www.w3.org/2000/svg">
<g id="Mobile App Store Badges">
<rect x="0.37146" width="96" height="32" rx="6" fill="#020500"/>
<g id="App Store">
<path d="M65.5916 15.3608V17.1937H64.4427V18.3956H65.5916V22.4796C65.5916 23.8741 66.2224 24.4319 67.8095 24.4319C68.0884 24.4319 68.3541 24.3987 68.5865 24.3589V23.1702C68.3873 23.1901 68.2611 23.2034 68.042 23.2034C67.3314 23.2034 67.0193 22.8714 67.0193 22.1144V18.3956H68.5865V17.1937H67.0193V15.3608H65.5916Z" fill="white"/>
<path d="M72.6296 24.5316C74.7413 24.5316 76.0362 23.1171 76.0362 20.773C76.0362 18.4421 74.7346 17.021 72.6296 17.021C70.5178 17.021 69.2163 18.4421 69.2163 20.773C69.2163 23.1171 70.5112 24.5316 72.6296 24.5316ZM72.6296 23.2632C71.3878 23.2632 70.6905 22.3534 70.6905 20.773C70.6905 19.2058 71.3878 18.2894 72.6296 18.2894C73.8647 18.2894 74.5686 19.2058 74.5686 20.773C74.5686 22.3468 73.8647 23.2632 72.6296 23.2632Z" fill="white"/>
<path d="M77.1441 24.3921H78.5719V20.1222C78.5719 19.1062 79.3355 18.4222 80.418 18.4222C80.6703 18.4222 81.0953 18.4687 81.2148 18.5085V17.1007C81.0621 17.0608 80.7898 17.0409 80.5773 17.0409C79.6344 17.0409 78.8308 17.5589 78.625 18.2694H78.5187V17.1605H77.1441V24.3921Z" fill="white"/>
<path d="M84.7599 18.2362C85.8157 18.2362 86.5063 18.9733 86.5395 20.1089H82.8872C82.9669 18.98 83.704 18.2362 84.7599 18.2362ZM86.5329 22.4398C86.2673 23.0042 85.6763 23.3163 84.813 23.3163C83.6708 23.3163 82.9337 22.5128 82.8872 21.2444V21.1648H87.9938V20.6667C87.9938 18.3956 86.7786 17.021 84.7665 17.021C82.7278 17.021 81.4329 18.4886 81.4329 20.7995C81.4329 23.1105 82.7013 24.5316 84.7731 24.5316C86.4267 24.5316 87.5821 23.7347 87.9075 22.4398H86.5329Z" fill="white"/>
<path d="M56.2287 21.7216C56.3388 23.4973 57.8186 24.633 60.0211 24.633C62.375 24.633 63.848 23.4423 63.848 21.5426C63.848 20.049 63.0083 19.2231 60.971 18.7482L59.8766 18.4798C58.5826 18.1769 58.0595 17.7708 58.0595 17.0619C58.0595 16.1671 58.8717 15.5821 60.09 15.5821C61.2463 15.5821 62.0447 16.1534 62.1892 17.0688H63.6897C63.6002 15.3963 62.1273 14.2193 60.1106 14.2193C57.9425 14.2193 56.4971 15.3963 56.4971 17.1651C56.4971 18.6243 57.3162 19.4915 59.1126 19.9114L60.3928 20.2211C61.7074 20.5308 62.2856 20.9851 62.2856 21.7422C62.2856 22.6232 61.377 23.2633 60.1381 23.2633C58.8098 23.2633 57.8875 22.6645 57.7567 21.7216H56.2287Z" fill="white"/>
<path d="M41.4388 17.0409C40.456 17.0409 39.606 17.5323 39.1677 18.3558H39.0615V17.1605H37.6869V26.796H39.1146V23.2964H39.2275C39.606 24.0601 40.4228 24.5116 41.4521 24.5116C43.2783 24.5116 44.4404 23.0706 44.4404 20.773C44.4404 18.4753 43.2783 17.0409 41.4388 17.0409ZM41.0338 23.23C39.8384 23.23 39.0881 22.287 39.0881 20.7796C39.0881 19.2655 39.8384 18.3226 41.0404 18.3226C42.249 18.3226 42.9728 19.2456 42.9728 20.773C42.9728 22.3069 42.249 23.23 41.0338 23.23Z" fill="white"/>
<path d="M49.4363 17.0409C48.4535 17.0409 47.6035 17.5323 47.1652 18.3558H47.0589V17.1605H45.6843V26.796H47.1121V23.2964H47.2249C47.6035 24.0601 48.4203 24.5116 49.4496 24.5116C51.2757 24.5116 52.4378 23.0706 52.4378 20.773C52.4378 18.4753 51.2757 17.0409 49.4363 17.0409ZM49.0312 23.23C47.8359 23.23 47.0855 22.287 47.0855 20.7796C47.0855 19.2655 47.8359 18.3226 49.0378 18.3226C50.2464 18.3226 50.9703 19.2456 50.9703 20.773C50.9703 22.3069 50.2464 23.23 49.0312 23.23Z" fill="white"/>
<path d="M35.1253 24.3921H36.7634L33.1774 14.4602H31.5187L27.9327 24.3921H29.5158L30.4312 21.756H34.2167L35.1253 24.3921ZM32.2689 16.2635H32.3859L33.8244 20.462H30.8235L32.2689 16.2635Z" fill="white"/>
</g>
<g id="Download on the">
<path d="M28.8933 6.96871V11.7599H30.6232C32.0509 11.7599 32.8777 10.88 32.8777 9.34938C32.8777 7.84196 32.0443 6.96871 30.6232 6.96871H28.8933ZM29.6371 7.64606H30.5402C31.533 7.64606 32.1207 8.27692 32.1207 9.35934C32.1207 10.4584 31.5429 11.0826 30.5402 11.0826H29.6371V7.64606Z" fill="white"/>
<path d="M35.4098 11.8297C36.4656 11.8297 37.1131 11.1224 37.1131 9.95035C37.1131 8.78492 36.4623 8.07438 35.4098 8.07438C34.3539 8.07438 33.7031 8.78492 33.7031 9.95035C33.7031 11.1224 34.3506 11.8297 35.4098 11.8297ZM35.4098 11.1955C34.7889 11.1955 34.4402 10.7406 34.4402 9.95035C34.4402 9.16676 34.7889 8.70856 35.4098 8.70856C36.0273 8.70856 36.3793 9.16676 36.3793 9.95035C36.3793 10.7373 36.0273 11.1955 35.4098 11.1955Z" fill="white"/>
<path d="M42.6268 8.1441H41.9129L41.2688 10.9033H41.2123L40.4686 8.1441H39.7846L39.0408 10.9033H38.9877L38.3403 8.1441H37.6164L38.6125 11.7599H39.3463L40.0901 9.09703H40.1465L40.8936 11.7599H41.634L42.6268 8.1441Z" fill="white"/>
<path d="M43.4489 11.7599H44.1628V9.64489C44.1628 9.08043 44.4981 8.72848 45.026 8.72848C45.554 8.72848 45.8063 9.01735 45.8063 9.5984V11.7599H46.5202V9.4191C46.5202 8.55914 46.0753 8.07438 45.2684 8.07438C44.7239 8.07438 44.3653 8.31676 44.1893 8.71852H44.1362V8.1441H43.4489V11.7599Z" fill="white"/>
<path d="M47.6444 11.7599H48.3583V6.73297H47.6444V11.7599Z" fill="white"/>
<path d="M51.0431 11.8297C52.099 11.8297 52.7464 11.1224 52.7464 9.95035C52.7464 8.78492 52.0957 8.07438 51.0431 8.07438C49.9873 8.07438 49.3365 8.78492 49.3365 9.95035C49.3365 11.1224 49.9839 11.8297 51.0431 11.8297ZM51.0431 11.1955C50.4222 11.1955 50.0736 10.7406 50.0736 9.95035C50.0736 9.16676 50.4222 8.70856 51.0431 8.70856C51.6607 8.70856 52.0126 9.16676 52.0126 9.95035C52.0126 10.7373 51.6607 11.1955 51.0431 11.1955Z" fill="white"/>
<path d="M54.8734 11.2187C54.4849 11.2187 54.2027 11.0295 54.2027 10.7041C54.2027 10.3853 54.4285 10.216 54.9265 10.1828L55.8098 10.1263V10.4285C55.8098 10.8767 55.4113 11.2187 54.8734 11.2187ZM54.6908 11.8197C55.1656 11.8197 55.5607 11.6138 55.7765 11.2519H55.833V11.7599H56.5203V9.28961C56.5203 8.52594 56.009 8.07438 55.1025 8.07438C54.2824 8.07438 53.698 8.47281 53.625 9.09371H54.3156C54.3953 8.83805 54.6709 8.69196 55.0693 8.69196C55.5574 8.69196 55.8098 8.90778 55.8098 9.28961V9.60172L54.8303 9.65817C53.9703 9.71129 53.4855 10.0865 53.4855 10.7373C53.4855 11.398 53.9935 11.8197 54.6908 11.8197Z" fill="white"/>
<path d="M58.9428 11.8197C59.4408 11.8197 59.8625 11.5839 60.0783 11.1888H60.1348V11.7599H60.8188V6.73297H60.1049V8.71852H60.0518C59.8559 8.32008 59.4375 8.08434 58.9428 8.08434C58.0297 8.08434 57.442 8.80817 57.442 9.95035C57.442 11.0959 58.0231 11.8197 58.9428 11.8197ZM59.1453 8.72516C59.743 8.72516 60.1182 9.19996 60.1182 9.95367C60.1182 10.7107 59.7463 11.1789 59.1453 11.1789C58.541 11.1789 58.1791 10.7173 58.1791 9.95035C58.1791 9.19 58.5444 8.72516 59.1453 8.72516Z" fill="white"/>
<path d="M65.448 11.8297C66.5038 11.8297 67.1513 11.1224 67.1513 9.95035C67.1513 8.78492 66.5005 8.07438 65.448 8.07438C64.3921 8.07438 63.7413 8.78492 63.7413 9.95035C63.7413 11.1224 64.3888 11.8297 65.448 11.8297ZM65.448 11.1955C64.8271 11.1955 64.4784 10.7406 64.4784 9.95035C64.4784 9.16676 64.8271 8.70856 65.448 8.70856C66.0655 8.70856 66.4175 9.16676 66.4175 9.95035C66.4175 10.7373 66.0655 11.1955 65.448 11.1955Z" fill="white"/>
<path d="M68.0962 11.7599H68.8101V9.64489C68.8101 9.08043 69.1455 8.72848 69.6734 8.72848C70.2013 8.72848 70.4537 9.01735 70.4537 9.5984V11.7599H71.1675V9.4191C71.1675 8.55914 70.7226 8.07438 69.9158 8.07438C69.3712 8.07438 69.0126 8.31676 68.8367 8.71852H68.7835V8.1441H68.0962V11.7599Z" fill="white"/>
<path d="M74.4553 7.2443V8.16071H73.8809V8.76168H74.4553V10.8037C74.4553 11.5009 74.7707 11.7798 75.5643 11.7798C75.7037 11.7798 75.8365 11.7632 75.9528 11.7433V11.149C75.8531 11.1589 75.7901 11.1656 75.6805 11.1656C75.3252 11.1656 75.1692 10.9996 75.1692 10.6211V8.76168H75.9528V8.16071H75.1692V7.2443H74.4553Z" fill="white"/>
<path d="M76.911 11.7599H77.6249V9.64821C77.6249 9.10035 77.9503 8.7318 78.5346 8.7318C79.0393 8.7318 79.3083 9.02399 79.3083 9.60172V11.7599H80.0221V9.42574C80.0221 8.56578 79.5473 8.0777 78.777 8.0777C78.2325 8.0777 77.8507 8.32008 77.6747 8.72516H77.6182V6.73297H76.911V11.7599Z" fill="white"/>
<path d="M82.5974 8.68199C83.1253 8.68199 83.4706 9.05055 83.4872 9.61832H81.661C81.7009 9.05387 82.0694 8.68199 82.5974 8.68199ZM83.4839 10.7838C83.3511 11.066 83.0556 11.222 82.6239 11.222C82.0528 11.222 81.6843 10.8203 81.661 10.1861V10.1463H84.2144V9.89723C84.2144 8.76168 83.6067 8.07438 82.6007 8.07438C81.5814 8.07438 80.9339 8.80817 80.9339 9.96364C80.9339 11.1191 81.5681 11.8297 82.604 11.8297C83.4308 11.8297 84.0085 11.4312 84.1712 10.7838H83.4839Z" fill="white"/>
</g>
<g id="Apple logo">
<path d="M20.1873 16.2407C20.2047 14.8959 20.9269 13.6235 22.0726 12.9191C21.3498 11.8868 20.1392 11.2323 18.8797 11.1929C17.5363 11.0519 16.2339 11.9968 15.5493 11.9968C14.8515 11.9968 13.7975 11.2069 12.6625 11.2303C11.1831 11.2781 9.80396 12.1192 9.0842 13.4126C7.537 16.0913 8.69107 20.0282 10.1732 22.1934C10.9147 23.2537 11.7813 24.4381 12.9153 24.3961C14.0249 24.3501 14.4393 23.6885 15.7788 23.6885C17.1058 23.6885 17.4946 24.3961 18.6516 24.3694C19.8423 24.3501 20.5925 23.3044 21.308 22.2341C21.8408 21.4786 22.2507 20.6436 22.5227 19.7601C21.1234 19.1682 20.189 17.76 20.1873 16.2407Z" fill="white"/>
<path d="M18.002 9.76894C18.6512 8.98957 18.9711 7.98783 18.8936 6.97644C17.9018 7.08062 16.9855 7.55466 16.3276 8.30413C15.6841 9.03639 15.3493 10.0205 15.4126 10.9932C16.4048 11.0035 17.3802 10.5423 18.002 9.76894Z" fill="white"/>
</g>
</g>
</svg>
