<svg width="20" height="21" viewBox="0 0 20 21" fill="none" xmlns="http://www.w3.org/2000/svg">
<g id="vuesax/linear/like">
<g id="like">
<path id="Vector" d="M6.2334 15.7916L8.81673 17.7916C9.15006 18.1249 9.90006 18.2916 10.4001 18.2916H13.5667C14.5667 18.2916 15.6501 17.5416 15.9001 16.5416L17.9001 10.4582C18.3167 9.29156 17.5667 8.29156 16.3167 8.29156H12.9834C12.4834 8.29156 12.0667 7.87489 12.1501 7.29156L12.5667 4.62489C12.7334 3.87489 12.2334 3.04156 11.4834 2.79156C10.8167 2.54156 9.9834 2.87489 9.65006 3.37489L6.2334 8.45823" stroke="#020500" stroke-width="1.5" stroke-miterlimit="10"/>
<path id="Vector_2" d="M1.9834 15.7917V7.62508C1.9834 6.45841 2.4834 6.04175 3.65007 6.04175H4.4834C5.65006 6.04175 6.15007 6.45841 6.15007 7.62508V15.7917C6.15007 16.9584 5.65006 17.3751 4.4834 17.3751H3.65007C2.4834 17.3751 1.9834 16.9584 1.9834 15.7917Z" stroke="#020500" stroke-width="1.5" stroke-linecap="round" stroke-linejoin="round"/>
</g>
</g>
</svg>
