<svg width="108" height="32" viewBox="0 0 108 32" fill="none" xmlns="http://www.w3.org/2000/svg">
<g id="Mobile App Store Badges">
<rect width="107.886" height="32" rx="6" fill="#020500"/>
<path id="Google Play" d="M54.4512 17.4008C52.5716 17.4008 51.0396 18.832 51.0396 20.8032C51.0396 22.7624 52.5716 24.2056 54.4512 24.2056C56.3316 24.2056 57.8636 22.7624 57.8636 20.8032C57.8628 18.832 56.3308 17.4008 54.4512 17.4008ZM54.4512 22.8664C53.4211 22.8664 52.5332 22.016 52.5332 20.804C52.5332 19.5792 53.4219 18.7416 54.4512 18.7416C55.4813 18.7416 56.3692 19.5792 56.3692 20.804C56.3692 22.0152 55.4813 22.8664 54.4512 22.8664ZM47.0079 17.4008C45.1283 17.4008 43.5963 18.832 43.5963 20.8032C43.5963 22.7624 45.1283 24.2056 47.0079 24.2056C48.8883 24.2056 50.4203 22.7624 50.4203 20.8032C50.4203 18.832 48.8883 17.4008 47.0079 17.4008ZM47.0079 22.8664C45.9778 22.8664 45.0899 22.016 45.0899 20.804C45.0899 19.5792 45.9786 18.7416 47.0079 18.7416C48.038 18.7416 48.9259 19.5792 48.9259 20.804C48.9267 22.0152 48.038 22.8664 47.0079 22.8664ZM38.1549 18.4456V19.8888H41.6056C41.5025 20.7008 41.2324 21.2936 40.8201 21.7056C40.3182 22.208 39.5326 22.7624 38.1549 22.7624C36.0307 22.7624 34.3701 21.048 34.3701 18.9216C34.3701 16.7952 36.0307 15.0808 38.1549 15.0808C39.3009 15.0808 40.1376 15.532 40.7553 16.112L41.7726 15.0936C40.9096 14.2688 39.7644 13.6376 38.1549 13.6376C35.2452 13.6376 32.799 16.0088 32.799 18.9216C32.799 21.8344 35.2452 24.2056 38.1549 24.2056C39.7252 24.2056 40.9104 23.6896 41.8366 22.7232C42.7892 21.7696 43.0857 20.4288 43.0857 19.3464C43.0857 19.012 43.0601 18.7024 43.0081 18.4448H38.1549V18.4456ZM74.3629 19.5664C74.08 18.8064 73.2169 17.4008 71.4532 17.4008C69.7023 17.4008 68.247 18.78 68.247 20.8032C68.247 22.7104 69.6895 24.2056 71.6202 24.2056C73.1778 24.2056 74.0792 23.252 74.4532 22.6976L73.2944 21.924C72.9085 22.4912 72.3802 22.8648 71.6202 22.8648C70.861 22.8648 70.32 22.5168 69.9724 21.8336L74.5172 19.952L74.3629 19.5664ZM69.7278 20.7008C69.6895 19.3856 70.7452 18.716 71.5051 18.716C72.0973 18.716 72.5992 19.0128 72.767 19.4376L69.7278 20.7008ZM66.0333 24H67.5262V13.9992H66.0333V24ZM63.5863 18.1616H63.5352C63.2003 17.7616 62.5562 17.4008 61.7459 17.4008C60.0461 17.4008 58.4885 18.896 58.4885 20.8168C58.4885 22.724 60.0461 24.2064 61.7459 24.2064C62.557 24.2064 63.2003 23.8456 63.5352 23.4336H63.5863V23.9232C63.5863 25.2248 62.8911 25.9208 61.7715 25.9208C60.8572 25.9208 60.2906 25.264 60.0589 24.7096L58.7587 25.2512C59.1319 26.1528 60.1228 27.2616 61.7715 27.2616C63.5224 27.2616 65.0032 26.2304 65.0032 23.7168V17.608H63.5871V18.1616H63.5863ZM61.8746 22.8664C60.8444 22.8664 59.9822 22.0024 59.9822 20.8168C59.9822 19.6176 60.8444 18.7416 61.8746 18.7416C62.8911 18.7416 63.6894 19.6176 63.6894 20.8168C63.6894 22.0024 62.8911 22.8664 61.8746 22.8664ZM81.3587 13.9992H77.7857V24H79.2761V20.2112H81.3579C83.0106 20.2112 84.636 19.0136 84.636 17.1056C84.636 15.1976 83.0114 13.9992 81.3587 13.9992ZM81.3971 18.8192H79.2761V15.3912H81.3971C82.5119 15.3912 83.1448 16.3152 83.1448 17.1056C83.1448 17.88 82.5119 18.8192 81.3971 18.8192ZM90.6129 17.3832C89.5333 17.3832 88.4152 17.8592 87.9525 18.9144L89.2759 19.4672C89.5588 18.9144 90.0863 18.7336 90.6385 18.7336C91.4097 18.7336 92.1936 19.1968 92.2064 20.02V20.1232C91.9363 19.9688 91.3577 19.7376 90.6513 19.7376C89.2248 19.7376 87.7719 20.5224 87.7719 21.9888C87.7719 23.3272 88.9419 24.1888 90.2525 24.1888C91.2546 24.1888 91.8076 23.7384 92.1545 23.2104H92.2056V23.9824H93.6457V20.148C93.6465 18.3736 92.3215 17.3832 90.6129 17.3832ZM90.4323 22.864C89.9448 22.864 89.2631 22.6192 89.2631 22.0144C89.2631 21.2424 90.1118 20.9464 90.8447 20.9464C91.4992 20.9464 91.8084 21.088 92.2064 21.2808C92.0905 22.208 91.2938 22.864 90.4323 22.864ZM98.8897 17.6016L97.1804 21.9376H97.1292L95.3551 17.6016H93.7488L96.4092 23.6616L94.8924 27.0328H96.4475L100.548 17.6016H98.8897ZM85.4592 24H86.9496V13.9992H85.4592V24Z" fill="white"/>
<g id="Get it on">
<path d="M37.8948 8.19467C37.8948 8.86507 37.6966 9.39867 37.2994 9.79707C36.8487 10.2707 36.2605 10.5075 35.5381 10.5075C34.846 10.5075 34.257 10.2675 33.7735 9.78747C33.2893 9.30667 33.0471 8.71147 33.0471 8.00107C33.0471 7.28987 33.2893 6.69467 33.7735 6.21467C34.257 5.73387 34.846 5.49387 35.5381 5.49387C35.8817 5.49387 36.2102 5.56107 36.5218 5.69467C36.8343 5.82907 37.0844 6.00747 37.2714 6.23067L36.8503 6.65307C36.533 6.27307 36.0959 6.08347 35.5373 6.08347C35.0322 6.08347 34.5959 6.26107 34.2275 6.61627C33.8591 6.97147 33.6753 7.43307 33.6753 8.00027C33.6753 8.56747 33.8591 9.02907 34.2275 9.38427C34.5959 9.73947 35.0322 9.91707 35.5373 9.91707C36.0727 9.91707 36.5194 9.73867 36.8767 9.38107C37.1084 9.14827 37.2427 8.82427 37.2786 8.40907H35.5373V7.83227H37.8604C37.8844 7.95787 37.8948 8.07867 37.8948 8.19467Z" fill="white"/>
<path d="M41.579 6.18992H39.3957V7.71152H41.3648V8.28832H39.3957V9.80992H41.579V10.4003H38.7795V5.60032H41.579V6.18992Z" fill="white"/>
<path d="M44.1769 10.4003H43.5608V6.18992H42.2214V5.60032H45.5163V6.18992H44.1769V10.4003Z" fill="white"/>
<path d="M47.9001 10.4003V5.60032H48.5163V10.4003H47.9001Z" fill="white"/>
<path d="M51.2487 10.4003H50.6326V6.18992H49.2932V5.60032H52.5881V6.18992H51.2487V10.4003Z" fill="white"/>
<path d="M58.8253 9.78031C58.3538 10.2651 57.768 10.5075 57.0672 10.5075C56.3663 10.5075 55.7805 10.2651 55.3098 9.78031C54.8383 9.29551 54.6034 8.70191 54.6034 8.00031C54.6034 7.29871 54.8383 6.70511 55.3098 6.22031C55.7805 5.73551 56.3663 5.49231 57.0672 5.49231C57.764 5.49231 58.349 5.73631 58.8221 6.22351C59.2952 6.71071 59.5318 7.30271 59.5318 8.00031C59.5318 8.70191 59.296 9.29551 58.8253 9.78031ZM55.7646 9.37791C56.1194 9.73791 56.5533 9.91711 57.0672 9.91711C57.581 9.91711 58.0158 9.73711 58.3698 9.37791C58.7246 9.01791 58.9028 8.55871 58.9028 8.00031C58.9028 7.44191 58.7246 6.98271 58.3698 6.62271C58.0158 6.26271 57.581 6.08351 57.0672 6.08351C56.5533 6.08351 56.1194 6.26351 55.7646 6.62271C55.4105 6.98271 55.2323 7.44191 55.2323 8.00031C55.2323 8.55871 55.4105 9.01791 55.7646 9.37791Z" fill="white"/>
<path d="M60.3965 10.4003V5.60032H61.1461L63.4764 9.33392H63.5028L63.4764 8.40912V5.60032H64.0926V10.4003H63.4492L61.011 6.48512H60.9846L61.011 7.40992V10.4003H60.3965Z" fill="white"/>
<path d="M37.8948 8.19467C37.8948 8.86507 37.6966 9.39867 37.2994 9.79707C36.8487 10.2707 36.2605 10.5075 35.5381 10.5075C34.846 10.5075 34.257 10.2675 33.7735 9.78747C33.2893 9.30667 33.0471 8.71147 33.0471 8.00107C33.0471 7.28987 33.2893 6.69467 33.7735 6.21467C34.257 5.73387 34.846 5.49387 35.5381 5.49387C35.8817 5.49387 36.2102 5.56107 36.5218 5.69467C36.8343 5.82907 37.0844 6.00747 37.2714 6.23067L36.8503 6.65307C36.533 6.27307 36.0959 6.08347 35.5373 6.08347C35.0322 6.08347 34.5959 6.26107 34.2275 6.61627C33.8591 6.97147 33.6753 7.43307 33.6753 8.00027C33.6753 8.56747 33.8591 9.02907 34.2275 9.38427C34.5959 9.73947 35.0322 9.91707 35.5373 9.91707C36.0727 9.91707 36.5194 9.73867 36.8767 9.38107C37.1084 9.14827 37.2427 8.82427 37.2786 8.40907H35.5373V7.83227H37.8604C37.8844 7.95787 37.8948 8.07867 37.8948 8.19467Z" stroke="white" stroke-width="0.160022" stroke-miterlimit="10"/>
<path d="M41.579 6.18992H39.3957V7.71152H41.3648V8.28832H39.3957V9.80992H41.579V10.4003H38.7795V5.60032H41.579V6.18992Z" stroke="white" stroke-width="0.160022" stroke-miterlimit="10"/>
<path d="M44.1769 10.4003H43.5608V6.18992H42.2214V5.60032H45.5163V6.18992H44.1769V10.4003Z" stroke="white" stroke-width="0.160022" stroke-miterlimit="10"/>
<path d="M47.9001 10.4003V5.60032H48.5163V10.4003H47.9001Z" stroke="white" stroke-width="0.160022" stroke-miterlimit="10"/>
<path d="M51.2487 10.4003H50.6326V6.18992H49.2932V5.60032H52.5881V6.18992H51.2487V10.4003Z" stroke="white" stroke-width="0.160022" stroke-miterlimit="10"/>
<path d="M58.8253 9.78031C58.3538 10.2651 57.768 10.5075 57.0672 10.5075C56.3663 10.5075 55.7805 10.2651 55.3098 9.78031C54.8383 9.29551 54.6034 8.70191 54.6034 8.00031C54.6034 7.29871 54.8383 6.70511 55.3098 6.22031C55.7805 5.73551 56.3663 5.49231 57.0672 5.49231C57.764 5.49231 58.349 5.73631 58.8221 6.22351C59.2952 6.71071 59.5318 7.30271 59.5318 8.00031C59.5318 8.70191 59.296 9.29551 58.8253 9.78031ZM55.7646 9.37791C56.1194 9.73791 56.5533 9.91711 57.0672 9.91711C57.581 9.91711 58.0158 9.73711 58.3698 9.37791C58.7246 9.01791 58.9028 8.55871 58.9028 8.00031C58.9028 7.44191 58.7246 6.98271 58.3698 6.62271C58.0158 6.26271 57.581 6.08351 57.0672 6.08351C56.5533 6.08351 56.1194 6.26351 55.7646 6.62271C55.4105 6.98271 55.2323 7.44191 55.2323 8.00031C55.2323 8.55871 55.4105 9.01791 55.7646 9.37791Z" stroke="white" stroke-width="0.160022" stroke-miterlimit="10"/>
<path d="M60.3965 10.4003V5.60032H61.1461L63.4764 9.33392H63.5028L63.4764 8.40912V5.60032H64.0926V10.4003H63.4492L61.011 6.48512H60.9846L61.011 7.40992V10.4003H60.3965Z" stroke="white" stroke-width="0.160022" stroke-miterlimit="10"/>
</g>
<g id="Google Play logo" filter="url(#filter0_ii_391_5177)">
<path id="Vector" d="M8.33998 6.03106C8.10743 6.27746 7.96997 6.65986 7.96997 7.15506V24.8479C7.96997 25.3439 8.10743 25.7255 8.33998 25.9719L8.39912 26.0295L18.2998 16.1183V16.0015V15.8847L8.39912 5.97266L8.33998 6.03106Z" fill="url(#paint0_linear_391_5177)"/>
<path id="Vector_2" d="M21.5991 19.4225L18.2994 16.1177V16.0009V15.8841L21.5999 12.5801L21.6743 12.6225L25.5845 14.8465C26.7009 15.4817 26.7009 16.5209 25.5845 17.1569L21.6743 19.3809L21.5991 19.4225Z" fill="url(#paint1_linear_391_5177)"/>
<g id="Vector_3" filter="url(#filter1_i_391_5177)">
<path d="M21.6756 19.3803L18.3 16.0011L8.34094 25.9715C8.70855 26.3619 9.31671 26.4099 10.0016 26.0211L21.6756 19.3803Z" fill="url(#paint2_linear_391_5177)"/>
</g>
<path id="Vector_4" d="M21.6756 12.6221L10.0016 5.98212C9.31671 5.59252 8.70855 5.64132 8.34094 6.03172L18.3008 16.0021L21.6756 12.6221Z" fill="url(#paint3_linear_391_5177)"/>
</g>
</g>
<defs>
<filter id="filter0_ii_391_5177" x="7.96997" y="5.71326" width="18.4519" height="20.5764" filterUnits="userSpaceOnUse" color-interpolation-filters="sRGB">
<feFlood flood-opacity="0" result="BackgroundImageFix"/>
<feBlend mode="normal" in="SourceGraphic" in2="BackgroundImageFix" result="shape"/>
<feColorMatrix in="SourceAlpha" type="matrix" values="0 0 0 0 0 0 0 0 0 0 0 0 0 0 0 0 0 0 127 0" result="hardAlpha"/>
<feOffset dy="-0.120016"/>
<feComposite in2="hardAlpha" operator="arithmetic" k2="-1" k3="1"/>
<feColorMatrix type="matrix" values="0 0 0 0 0 0 0 0 0 0 0 0 0 0 0 0 0 0 0.12 0"/>
<feBlend mode="normal" in2="shape" result="effect1_innerShadow_391_5177"/>
<feColorMatrix in="SourceAlpha" type="matrix" values="0 0 0 0 0 0 0 0 0 0 0 0 0 0 0 0 0 0 127 0" result="hardAlpha"/>
<feOffset dy="0.120016"/>
<feComposite in2="hardAlpha" operator="arithmetic" k2="-1" k3="1"/>
<feColorMatrix type="matrix" values="0 0 0 0 1 0 0 0 0 1 0 0 0 0 1 0 0 0 0.25 0"/>
<feBlend mode="normal" in2="effect1_innerShadow_391_5177" result="effect2_innerShadow_391_5177"/>
</filter>
<filter id="filter1_i_391_5177" x="8.34094" y="16.0011" width="13.3347" height="10.2886" filterUnits="userSpaceOnUse" color-interpolation-filters="sRGB">
<feFlood flood-opacity="0" result="BackgroundImageFix"/>
<feBlend mode="normal" in="SourceGraphic" in2="BackgroundImageFix" result="shape"/>
<feColorMatrix in="SourceAlpha" type="matrix" values="0 0 0 0 0 0 0 0 0 0 0 0 0 0 0 0 0 0 127 0" result="hardAlpha"/>
<feOffset dy="-0.120016"/>
<feComposite in2="hardAlpha" operator="arithmetic" k2="-1" k3="1"/>
<feColorMatrix type="matrix" values="0 0 0 0 0 0 0 0 0 0 0 0 0 0 0 0 0 0 0.08 0"/>
<feBlend mode="normal" in2="shape" result="effect1_innerShadow_391_5177"/>
</filter>
<linearGradient id="paint0_linear_391_5177" x1="17.4222" y1="6.96786" x2="3.99661" y2="20.3792" gradientUnits="userSpaceOnUse">
<stop stop-color="#00A0FF"/>
<stop offset="0.0066" stop-color="#00A1FF"/>
<stop offset="0.2601" stop-color="#00BEFF"/>
<stop offset="0.5122" stop-color="#00D2FF"/>
<stop offset="0.7604" stop-color="#00DFFF"/>
<stop offset="1" stop-color="#00E3FF"/>
</linearGradient>
<linearGradient id="paint1_linear_391_5177" x1="27.0378" y1="16.0009" x2="7.70155" y2="16.0009" gradientUnits="userSpaceOnUse">
<stop stop-color="#FFE000"/>
<stop offset="0.4087" stop-color="#FFBD00"/>
<stop offset="0.7754" stop-color="#FFA500"/>
<stop offset="1" stop-color="#FF9C00"/>
</linearGradient>
<linearGradient id="paint2_linear_391_5177" x1="19.8424" y1="17.8362" x2="1.63565" y2="36.0237" gradientUnits="userSpaceOnUse">
<stop stop-color="#FF3A44"/>
<stop offset="1" stop-color="#C31162"/>
</linearGradient>
<linearGradient id="paint3_linear_391_5177" x1="5.83272" y1="0.141957" x2="13.9626" y2="8.26319" gradientUnits="userSpaceOnUse">
<stop stop-color="#32A071"/>
<stop offset="0.0685" stop-color="#2DA771"/>
<stop offset="0.4762" stop-color="#15CF74"/>
<stop offset="0.8009" stop-color="#06E775"/>
<stop offset="1" stop-color="#00F076"/>
</linearGradient>
</defs>
</svg>
