<svg width="20" height="20" viewBox="0 0 20 20" fill="none" xmlns="http://www.w3.org/2000/svg">
<g id="vuesax/linear/money-3">
<path id="Vector" d="M14.1665 17.0833H5.83317C3.33317 17.0833 1.6665 15.8333 1.6665 12.9166V7.08329C1.6665 4.16663 3.33317 2.91663 5.83317 2.91663H14.1665C16.6665 2.91663 18.3332 4.16663 18.3332 7.08329V12.9166C18.3332 15.8333 16.6665 17.0833 14.1665 17.0833Z" stroke="#020500" stroke-width="1.5" stroke-miterlimit="10" stroke-linecap="round" stroke-linejoin="round"/>
<path id="Vector_2" d="M10 12.5C11.3807 12.5 12.5 11.3807 12.5 10C12.5 8.61929 11.3807 7.5 10 7.5C8.61929 7.5 7.5 8.61929 7.5 10C7.5 11.3807 8.61929 12.5 10 12.5Z" stroke="#020500" stroke-width="1.5" stroke-miterlimit="10" stroke-linecap="round" stroke-linejoin="round"/>
<path id="Vector_3" d="M15.8335 5.83337H13.3335" stroke="#020500" stroke-width="1.5" stroke-miterlimit="10" stroke-linecap="round" stroke-linejoin="round"/>
<path id="Vector_4" d="M6.6665 14.1666H4.1665" stroke="#020500" stroke-width="1.5" stroke-miterlimit="10" stroke-linecap="round" stroke-linejoin="round"/>
</g>
</svg>
