<svg width="50" height="51" viewBox="0 0 50 51" fill="none" xmlns="http://www.w3.org/2000/svg">
<g id="Qr code" clip-path="url(#clip0_105_225)">
<path id="Vector" d="M15.625 0.5H0V16.125H15.625V0.5ZM12.5 13H3.125V3.625H12.5V13Z" fill="#020500"/>
<path id="Vector_2" d="M6.25 6.75H9.375V9.875H6.25V6.75ZM34.375 0.5V16.125H50V0.5H34.375ZM46.875 13H37.5V3.625H46.875V13Z" fill="#020500"/>
<path id="Vector_3" d="M40.625 6.75H43.75V9.875H40.625V6.75ZM0 50.5H15.625V34.875H0V50.5ZM3.125 38H12.5V47.375H3.125V38Z" fill="#020500"/>
<path id="Vector_4" d="M6.25 41.125H9.375V44.25H6.25V41.125ZM25 0.5H31.25V3.625H25V0.5ZM25 13H28.125V9.875H31.25V6.75H21.875V3.625H18.75V9.875H25V13ZM18.75 13H21.875V16.125H18.75V13ZM31.25 16.125H28.125V19.25H18.75V22.375H31.25V16.125ZM3.125 28.625H6.25V25.5H3.125V19.25H0V31.75H3.125V28.625ZM6.25 19.25H9.375V22.375H6.25V19.25Z" fill="#020500"/>
<path id="Vector_5" d="M18.75 31.75H25V28.625H21.875V25.5H15.625V19.25H12.5V25.5H9.375V31.75H12.5V28.625H18.75V31.75ZM28.125 25.5H31.25V31.75H28.125V25.5ZM28.125 34.875H18.75V38H25V47.375H18.75V50.5H28.125V47.375H34.375V44.25H28.125V34.875Z" fill="#020500"/>
<path id="Vector_6" d="M18.75 41.125H21.875V44.25H18.75V41.125ZM31.25 34.875H34.375V41.125H31.25V34.875ZM46.875 41.125H37.5V50.5H40.625V44.25H46.875V41.125Z" fill="#020500"/>
<path id="Vector_7" d="M43.75 47.375H50V50.5H43.75V47.375ZM46.875 34.875H50V38H46.875V34.875ZM37.5 38H40.625V28.625H34.375V31.75H37.5V38ZM43.75 22.375H40.625V19.25H37.5V22.375H34.375V25.5H46.875V22.375H50V19.25H43.75V22.375ZM43.75 28.625H50V31.75H43.75V28.625Z" fill="#020500"/>
</g>
<defs>
<clipPath id="clip0_105_225">
<rect width="50" height="50" fill="white" transform="translate(0 0.5)"/>
</clipPath>
</defs>
</svg>
