<svg width="115" height="115" viewBox="0 0 115 115" fill="none" xmlns="http://www.w3.org/2000/svg">
<g id="arrow ">
<path id="Vector" d="M104.292 77.8852C102.289 72.8965 99.3056 69.6907 94.7264 66.8923C94.2494 66.2285 95.4956 66.469 95.8374 66.4968C98.8663 66.8506 101.655 69.5714 103.716 71.8591C101.508 63.5295 97.4195 54.1981 90.6361 48.7663C82.9028 42.3169 70.4988 40.0491 62.3103 46.7868C65.1425 52.7393 66.8795 59.9023 64.9139 66.3914C61.5968 74.5024 52.7922 71.4775 51.4625 63.2194C50.3853 56.5215 53.1837 49.6567 57.7748 44.7555C43.0653 22.6168 15.0555 26.6097 1.55841 47.8183C1.54283 47.845 1.52196 47.8683 1.49708 47.8867C1.47219 47.9051 1.44381 47.9183 1.41368 47.9253C1.38354 47.9324 1.35228 47.9333 1.32181 47.9278C1.29133 47.9224 1.26229 47.9108 1.23644 47.8938C1.21013 47.8789 1.18706 47.8588 1.16858 47.8349C1.15011 47.8109 1.13659 47.7835 1.12881 47.7543C1.12104 47.7251 1.11917 47.6946 1.12332 47.6646C1.12747 47.6346 1.13754 47.6058 1.15296 47.5798C14.34 24.7375 43.92 20.4226 59.9551 42.8098C66.1084 37.9086 74.7659 37.1136 82.0581 39.6039C95.1795 43.9049 103.609 58.3361 105.059 71.5609C105.866 70.3804 106.198 68.9315 106.997 67.7509C107.933 66.3696 110.493 64.6882 110.364 65.8707C109.493 67.2098 108.725 68.6138 108.068 70.0703C107.379 71.5311 106.645 73.2026 106.025 74.6932L105.914 74.9794L104.753 77.8653C104.736 77.9115 104.706 77.9518 104.666 77.9808C104.626 78.0099 104.579 78.0265 104.529 78.0287C104.48 78.0308 104.431 78.0183 104.389 77.9928C104.347 77.9672 104.313 77.9298 104.292 77.8852ZM55.8171 57.4696C53.0863 66.1271 60.8137 71.9505 62.2745 62.6907C62.6628 58.0234 61.892 53.3324 60.0306 49.0346C57.9973 51.4856 56.5556 54.3718 55.8171 57.4696Z" fill="url(#paint0_linear_198_702)"/>
<path id="Vector_2" d="M30.3534 24.3301C30.3503 24.3615 30.3551 24.3931 30.3674 24.4222C30.3797 24.4512 30.3991 24.4767 30.4239 24.4963C30.4486 24.5159 30.4778 24.5289 30.5089 24.5343C30.54 24.5396 30.572 24.537 30.6018 24.5268C36.0575 22.7003 42.7355 24.1432 46.6052 27.4723C46.6395 27.5026 46.6842 27.5187 46.73 27.5172C46.7758 27.5157 46.8193 27.4968 46.8516 27.4643C46.8838 27.4315 46.9042 27.3889 46.9096 27.3432C46.9149 27.2976 46.9051 27.2514 46.8814 27.2119C43.7591 22.0544 35.6123 21.7861 30.57 24.0458C30.5122 24.0713 30.4623 24.1118 30.4255 24.1633C30.3888 24.2147 30.3666 24.275 30.3613 24.338L30.3534 24.3301Z" fill="url(#paint1_linear_198_702)"/>
<path id="Vector_3" d="M57.1264 75.1561C59.2332 77.7876 63.6971 76.2612 64.5398 73.1766C64.5461 73.156 64.5452 73.1338 64.5373 73.1137C64.5294 73.0937 64.515 73.0768 64.4963 73.066C64.4777 73.0552 64.4559 73.051 64.4346 73.0541C64.4132 73.0572 64.3936 73.0675 64.3788 73.0832C62.445 75.017 59.8672 76.124 57.2417 75.0091C57.222 74.9995 57.1997 74.9969 57.1784 75.0019C57.1571 75.0068 57.1381 75.0188 57.1246 75.036C57.1111 75.0532 57.104 75.0745 57.1043 75.0964C57.1046 75.1183 57.1124 75.1393 57.1264 75.1561Z" fill="url(#paint2_linear_198_702)"/>
<path id="Vector_4" d="M28.6896 25.0951C28.5175 24.8902 28.2751 24.7569 28.0099 24.7214C27.8141 24.6894 27.6133 24.7171 27.4335 24.8009C27.2598 24.8825 27.1149 25.0148 27.0181 25.1805C26.886 25.4048 26.8263 25.6644 26.8472 25.9239C27.0612 26.0459 27.2979 26.123 27.5428 26.1504C27.7075 26.1697 27.8742 26.1424 28.0242 26.0718C28.1742 26.0013 28.3014 25.8901 28.3915 25.7509C28.52 25.5468 28.6202 25.3261 28.6896 25.0951Z" fill="url(#paint3_linear_198_702)"/>
<path id="Vector_5" d="M65.5381 71.6501C65.5288 71.6633 65.5239 71.6791 65.5242 71.6952C65.5245 71.7113 65.5299 71.727 65.5396 71.7398C65.5494 71.7526 65.5629 71.762 65.5784 71.7667C65.5938 71.7713 65.6104 71.7708 65.6255 71.7654C65.7884 71.7116 65.9386 71.6251 66.0668 71.511C66.2392 71.3558 66.3802 71.1689 66.4822 70.9605C66.5837 70.7529 66.6431 70.5273 66.6571 70.2967C66.6696 70.1255 66.6466 69.9537 66.5895 69.7918C66.5837 69.7775 66.5738 69.7651 66.561 69.7564C66.5482 69.7476 66.5331 69.7429 66.5176 69.7426C66.5021 69.7424 66.4869 69.7468 66.4739 69.7552C66.4609 69.7636 66.4506 69.7756 66.4444 69.7898C66.3907 69.9429 66.3351 70.078 66.2794 70.2132C66.2039 70.396 66.1204 70.5709 66.037 70.7458C65.9535 70.9207 65.866 71.0917 65.7647 71.2685C65.6971 71.3918 65.6255 71.515 65.5381 71.6501Z" fill="url(#paint4_linear_198_702)"/>
<path id="Vector_6" d="M86.1343 49.1101C89.9901 51.4196 94.2592 56.0186 95.6247 60.3295C95.6265 60.3398 95.6323 60.3489 95.6409 60.3549C95.6495 60.3609 95.6601 60.3632 95.6704 60.3613C95.6806 60.3595 95.6898 60.3536 95.6957 60.3451C95.7017 60.3365 95.704 60.3259 95.7022 60.3156C95.406 55.7305 90.5009 50.3682 86.1681 49.0405C86.1593 49.0381 86.1499 49.0389 86.1415 49.0427C86.1332 49.0465 86.1264 49.0531 86.1224 49.0613C86.1184 49.0696 86.1174 49.0789 86.1196 49.0879C86.1218 49.0968 86.127 49.1046 86.1343 49.1101Z" fill="url(#paint5_linear_198_702)"/>
</g>
<defs>
<linearGradient id="paint0_linear_198_702" x1="110.442" y1="66.798" x2="1.76394" y2="46.2723" gradientUnits="userSpaceOnUse">
<stop/>
<stop offset="1" stop-color="#020500" stop-opacity="0"/>
</linearGradient>
<linearGradient id="paint1_linear_198_702" x1="46.535" y1="26.9957" x2="30.6324" y2="23.7023" gradientUnits="userSpaceOnUse">
<stop stop-color="#E6FDE2"/>
<stop offset="1" stop-color="#020500"/>
</linearGradient>
<linearGradient id="paint2_linear_198_702" x1="64.6791" y1="73.552" x2="59.4159" y2="70.7908" gradientUnits="userSpaceOnUse">
<stop stop-color="#E6FDE2"/>
<stop offset="1" stop-color="#020500"/>
</linearGradient>
<linearGradient id="paint3_linear_198_702" x1="28.8018" y1="25.2883" x2="27.1137" y2="24.4803" gradientUnits="userSpaceOnUse">
<stop stop-color="#E6FDE2"/>
<stop offset="1" stop-color="#020500"/>
</linearGradient>
<linearGradient id="paint4_linear_198_702" x1="67.1182" y1="70.4092" x2="66.0247" y2="69.6967" gradientUnits="userSpaceOnUse">
<stop stop-color="#E6FDE2"/>
<stop offset="1" stop-color="#020500"/>
</linearGradient>
<linearGradient id="paint5_linear_198_702" x1="97.072" y1="58.1396" x2="90.3122" y2="61.1353" gradientUnits="userSpaceOnUse">
<stop stop-color="#E6FDE2"/>
<stop offset="1" stop-color="#020500"/>
</linearGradient>
</defs>
</svg>
