<svg width="111" height="90" viewBox="0 0 111 90" fill="none" xmlns="http://www.w3.org/2000/svg">
<g id="arrow ">
<path id="Vector" d="M94.9393 29.91C94.9263 29.9387 94.9062 29.9637 94.8811 29.9827C94.8559 30.0017 94.8263 30.0141 94.7951 30.0187C94.7639 30.0233 94.732 30.02 94.7024 30.009C94.6728 29.9981 94.6465 29.9799 94.6257 29.9561C90.8142 25.6465 84.3094 23.5571 79.2937 24.5053C79.2488 24.5144 79.2021 24.506 79.1632 24.4818C79.1242 24.4576 79.096 24.4195 79.0842 24.3752C79.0728 24.3307 79.0764 24.2836 79.0946 24.2413C79.1128 24.1991 79.1444 24.1641 79.1846 24.1417C84.4674 21.2363 91.6569 25.0773 94.8937 29.5555C94.9311 29.6064 94.9541 29.6665 94.9602 29.7294C94.9663 29.7923 94.9553 29.8557 94.9284 29.9129L94.9393 29.91Z" fill="url(#paint0_linear_198_687)"/>
<path id="Vector_2" d="M46.3399 60.54C43.1996 61.7655 40.097 58.2117 40.9095 55.119C40.9143 55.098 40.9261 55.0792 40.943 55.0658C40.9599 55.0523 40.9808 55.045 41.0024 55.0449C41.0239 55.0449 41.0449 55.0521 41.0618 55.0655C41.0787 55.0789 41.0906 55.0976 41.0956 55.1186C41.8034 57.7602 43.4823 60.0078 46.3136 60.355C46.3354 60.3565 46.356 60.3655 46.372 60.3804C46.388 60.3953 46.3984 60.4152 46.4015 60.4369C46.4045 60.4585 46.4001 60.4806 46.3889 60.4993C46.3777 60.5181 46.3604 60.5324 46.3399 60.54Z" fill="url(#paint1_linear_198_687)"/>
<path id="Vector_3" d="M95.9975 31.4045C96.249 31.3131 96.5256 31.3189 96.773 31.4208C96.9585 31.4909 97.1186 31.6153 97.2324 31.7778C97.3421 31.9353 97.4013 32.1224 97.4023 32.3143C97.4046 32.5745 97.3265 32.8292 97.1787 33.0434C96.9323 33.0422 96.6887 32.9906 96.463 32.8919C96.3108 32.8262 96.18 32.7193 96.0854 32.5831C95.9908 32.447 95.9362 32.2871 95.9278 32.1216C95.9186 31.8805 95.942 31.6393 95.9975 31.4045Z" fill="url(#paint2_linear_198_687)"/>
<path id="Vector_4" d="M40.8083 53.2982C40.8098 53.3143 40.8061 53.3304 40.7978 53.3442C40.7895 53.358 40.777 53.3689 40.7621 53.3751C40.7473 53.3814 40.7308 53.3827 40.7151 53.379C40.6995 53.3753 40.6854 53.3666 40.6749 53.3543C40.5607 53.2263 40.474 53.0762 40.42 52.9134C40.3483 52.6928 40.3196 52.4604 40.3355 52.2289C40.3514 51.9984 40.4127 51.7733 40.516 51.5666C40.5907 51.4121 40.6966 51.2748 40.8269 51.1632C40.8391 51.1537 40.8539 51.1479 40.8693 51.1468C40.8848 51.1456 40.9002 51.149 40.9138 51.1565C40.9273 51.1641 40.9383 51.1755 40.9454 51.1893C40.9524 51.2031 40.9553 51.2186 40.9536 51.234C40.9235 51.3934 40.9041 51.5382 40.8848 51.6831C40.8587 51.8792 40.8436 52.0724 40.8284 52.2656C40.8133 52.4589 40.8035 52.6506 40.8029 52.8545C40.7998 52.995 40.8001 53.1375 40.8083 53.2982Z" fill="url(#paint3_linear_198_687)"/>
<path id="Vector_5" d="M34.2417 23.4791C29.7478 23.5513 23.751 25.3996 20.4131 28.4503C20.4064 28.4583 20.3968 28.4632 20.3863 28.4641C20.3759 28.465 20.3656 28.4617 20.3576 28.455C20.3496 28.4482 20.3447 28.4386 20.3438 28.4282C20.3429 28.4178 20.3462 28.4075 20.3529 28.3995C22.902 24.5767 29.8311 22.3854 34.2472 23.402C34.2561 23.4043 34.2638 23.4097 34.2692 23.4171C34.2745 23.4246 34.2771 23.4337 34.2764 23.4428C34.2758 23.452 34.2719 23.4606 34.2656 23.4672C34.2592 23.4739 34.2508 23.4781 34.2417 23.4791Z" fill="url(#paint4_linear_198_687)"/>
<path id="Vector_6" d="M4.12882 39.3205C8.35813 36.002 12.5446 34.7172 17.9095 34.5834C18.6545 34.247 17.4551 33.8322 17.1451 33.6853C14.3451 32.4772 10.5697 33.4394 7.64102 34.39C13.7181 28.2804 21.9243 22.2434 30.5148 20.9309C40.4368 19.2122 52.3128 23.4503 56.0354 33.3795C50.6064 37.1185 45.5206 42.4532 43.9783 49.0559C42.7955 57.7387 51.933 59.5213 57.2136 53.0345C61.4954 47.7726 62.5043 40.4283 60.9789 33.8882C84.787 22.0702 107.048 39.533 108.132 64.6488C108.132 64.6797 108.139 64.7103 108.151 64.7387C108.164 64.7671 108.182 64.7927 108.204 64.8138C108.227 64.835 108.253 64.8514 108.282 64.8619C108.312 64.8725 108.343 64.877 108.373 64.8752C108.404 64.8754 108.434 64.8696 108.462 64.8581C108.49 64.8466 108.515 64.8296 108.536 64.8082C108.558 64.7867 108.575 64.7613 108.586 64.7332C108.597 64.7052 108.603 64.6752 108.603 64.6449C108.604 38.2694 85.144 19.7426 60.0636 31.1129C57.1853 23.7917 50.0851 18.7745 42.5248 17.2851C29.0108 14.4491 14.4954 22.7324 6.62654 33.46C6.51801 32.0342 6.95501 30.6134 6.85336 29.1915C6.73332 27.5272 5.3571 24.7911 4.87769 25.8798C4.9629 27.4753 4.92553 29.0749 4.76591 30.6646C4.63277 32.2745 4.43216 34.0887 4.22387 35.6897L4.17716 35.9932L3.73944 39.0728C3.73108 39.1214 3.73726 39.1714 3.75724 39.2165C3.77721 39.2616 3.81006 39.2998 3.85168 39.3262C3.89329 39.3527 3.9418 39.3663 3.99111 39.3653C4.04041 39.3643 4.08833 39.3487 4.12882 39.3205ZM56.3173 45.8777C54.3535 54.7407 44.7497 55.9202 48.1144 47.1706C50.1119 42.9344 53.1249 39.2573 56.8858 36.466C57.4211 39.6053 57.2266 42.8257 56.3173 45.8777Z" fill="url(#paint5_linear_198_687)"/>
</g>
<defs>
<linearGradient id="paint0_linear_198_687" x1="79.5927" y1="24.1277" x2="95.0115" y2="29.2267" gradientUnits="userSpaceOnUse">
<stop/>
<stop offset="1" stop-opacity="0"/>
</linearGradient>
<linearGradient id="paint1_linear_198_687" x1="40.6011" y1="55.3744" x2="46.5397" y2="55.6148" gradientUnits="userSpaceOnUse">
<stop/>
<stop offset="1" stop-opacity="0"/>
</linearGradient>
<linearGradient id="paint2_linear_198_687" x1="95.8038" y1="31.5157" x2="97.6697" y2="31.66" gradientUnits="userSpaceOnUse">
<stop/>
<stop offset="1" stop-opacity="0"/>
</linearGradient>
<linearGradient id="paint3_linear_198_687" x1="40.0604" y1="51.4335" x2="41.3636" y2="51.3632" gradientUnits="userSpaceOnUse">
<stop/>
<stop offset="1" stop-opacity="0"/>
</linearGradient>
<linearGradient id="paint4_linear_198_687" x1="20.2546" y1="25.83" x2="24.6109" y2="31.8043" gradientUnits="userSpaceOnUse">
<stop/>
<stop offset="1" stop-opacity="0"/>
</linearGradient>
<linearGradient id="paint5_linear_198_687" x1="4.34619" y1="26.6437" x2="108.727" y2="63.2071" gradientUnits="userSpaceOnUse">
<stop/>
<stop offset="1" stop-color="#020500" stop-opacity="0"/>
</linearGradient>
</defs>
</svg>
