<svg width="16" height="16" viewBox="0 0 16 16" fill="none" xmlns="http://www.w3.org/2000/svg">
<g clip-path="url(#clip0_127_3403)">
<path d="M11.9796 13.3333C11.8735 11.4057 11.2833 10 8.00016 10C4.717 10 4.1268 11.4057 4.0207 13.3333M10.0002 6C10.0002 7.10456 9.10473 8 8.00016 8C6.89559 8 6.00016 7.10456 6.00016 6C6.00016 4.89543 6.89559 3.99999 8.00016 3.99999C9.10473 3.99999 10.0002 4.89543 10.0002 6ZM14.6668 8C14.6668 11.6819 11.6821 14.6667 8.00016 14.6667C4.31826 14.6667 1.3335 11.6819 1.3335 8C1.3335 4.3181 4.31826 1.33333 8.00016 1.33333C11.6821 1.33333 14.6668 4.3181 14.6668 8Z" stroke="#020500" stroke-width="1.5" stroke-linecap="round"/>
</g>
<defs>
<clipPath id="clip0_127_3403">
<rect width="16" height="16" fill="white"/>
</clipPath>
</defs>
</svg>
